<svg version="1.1" id="chanz-logo" xmlns="http://www.w3.org/2000/svg" xmlns:xlink="http://www.w3.org/1999/xlink" x="0px" y="0px" viewBox="0 0 263.3 52.8" style="enable-background:new 0 0 263.3 52.8;" xml:space="preserve">
<style type="text/css">
	.st0{fill:#3298CB;}
	.st1{fill:#ffffff;}
</style>
<g id="Layer_x0020_1">
	<path class="st1" d="M80,21.2c-0.5-0.6-1.1-1.1-1.8-1.4c-0.7-0.3-1.6-0.5-2.5-0.5c-1,0-1.8,0.2-2.6,0.6c-0.8,0.4-1.5,0.9-2.1,1.5
		c-0.6,0.7-1.1,1.4-1.4,2.3c-0.3,0.9-0.5,1.9-0.5,2.9c0,1.1,0.2,2.1,0.5,3c0.3,0.9,0.8,1.7,1.4,2.3s1.3,1.2,2.1,1.5
		c0.8,0.4,1.6,0.6,2.5,0.6c1,0,2-0.2,2.8-0.6c0.8-0.4,1.5-1,2-1.8l4.2,3.2c-1,1.4-2.2,2.4-3.7,3c-1.5,0.6-3,1-4.6,1
		c-1.8,0-3.4-0.3-5-0.8c-1.5-0.6-2.8-1.4-3.9-2.4c-1.1-1-2-2.3-2.6-3.8c-0.6-1.5-0.9-3.2-0.9-5s0.3-3.5,0.9-5
		c0.6-1.5,1.5-2.8,2.6-3.8s2.4-1.9,3.9-2.4c1.5-0.6,3.2-0.8,5-0.8c0.6,0,1.3,0.1,2,0.2s1.4,0.3,2.1,0.6c0.7,0.3,1.3,0.6,2,1
		c0.6,0.4,1.2,1,1.7,1.6L80,21.2L80,21.2z M91.5,13.7v10.9h0.1c0.1-0.3,0.3-0.6,0.6-0.9c0.3-0.3,0.6-0.6,0.9-0.8
		c0.4-0.2,0.8-0.4,1.3-0.6c0.5-0.2,1-0.2,1.6-0.2c1.2,0,2.2,0.2,3,0.6c0.8,0.4,1.3,0.9,1.8,1.6s0.7,1.5,0.9,2.4
		c0.1,0.9,0.2,1.9,0.2,3v8.7h-4.9v-7.7c0-0.4,0-0.9,0-1.4c0-0.5-0.1-0.9-0.3-1.3c-0.2-0.4-0.4-0.7-0.7-1c-0.3-0.3-0.8-0.4-1.4-0.4
		s-1.1,0.1-1.5,0.3c-0.4,0.2-0.7,0.5-0.9,0.9c-0.2,0.4-0.3,0.8-0.4,1.3c-0.1,0.5-0.1,1-0.1,1.5v7.8h-4.9V13.7H91.5L91.5,13.7z
		 M115.1,36.2L115.1,36.2c-0.6,0.8-1.3,1.4-2.2,1.8c-0.9,0.4-1.8,0.6-2.8,0.6c-0.7,0-1.4-0.1-2.1-0.3c-0.7-0.2-1.3-0.5-1.8-0.9
		c-0.5-0.4-0.9-0.9-1.2-1.5s-0.5-1.3-0.5-2.1c0-0.9,0.2-1.7,0.5-2.3c0.3-0.6,0.8-1.1,1.4-1.6c0.6-0.4,1.2-0.7,2-1
		c0.7-0.2,1.5-0.4,2.3-0.5c0.8-0.1,1.6-0.2,2.4-0.2c0.8,0,1.5,0,2.2,0c0-0.9-0.3-1.6-0.9-2.1c-0.6-0.5-1.3-0.8-2.2-0.8
		c-0.8,0-1.5,0.2-2.2,0.5c-0.7,0.3-1.3,0.8-1.8,1.4l-2.6-2.7c0.9-0.8,2-1.5,3.2-1.9c1.2-0.4,2.5-0.6,3.8-0.6c1.4,0,2.6,0.2,3.5,0.5
		c0.9,0.4,1.6,0.9,2.2,1.6s0.9,1.5,1.2,2.5c0.2,1,0.3,2.2,0.3,3.5v8h-4.5V36.2L115.1,36.2z M113.9,31.3c-0.4,0-0.8,0-1.4,0
		c-0.6,0-1.1,0.1-1.6,0.3s-0.9,0.4-1.3,0.7c-0.4,0.3-0.5,0.7-0.5,1.3c0,0.6,0.3,1,0.8,1.3c0.5,0.3,1,0.4,1.6,0.4
		c0.5,0,0.9-0.1,1.4-0.2c0.4-0.1,0.8-0.3,1.2-0.6c0.3-0.2,0.6-0.5,0.8-0.9c0.2-0.4,0.3-0.8,0.3-1.3v-1L113.9,31.3L113.9,31.3z
		 M122.6,22.5h4.7v2.1h0.1c0.2-0.3,0.4-0.6,0.6-0.9c0.3-0.3,0.6-0.6,1-0.8c0.4-0.2,0.8-0.4,1.3-0.6c0.5-0.2,1-0.2,1.6-0.2
		c1.2,0,2.2,0.2,3,0.6c0.8,0.4,1.3,0.9,1.8,1.6s0.7,1.5,0.9,2.4c0.1,0.9,0.2,1.9,0.2,3v8.7h-4.9v-7.7c0-0.4,0-0.9,0-1.4
		c0-0.5-0.1-0.9-0.3-1.3c-0.2-0.4-0.4-0.7-0.7-1c-0.3-0.3-0.8-0.4-1.4-0.4c-0.6,0-1.1,0.1-1.5,0.3c-0.4,0.2-0.7,0.5-0.9,0.9
		c-0.2,0.4-0.3,0.8-0.4,1.3c-0.1,0.5-0.1,1-0.1,1.5v7.8h-4.9V22.5z M140.6,33.4l8.2-7h-8v-3.9h13.6v4.7l-8.6,7.2h8.7v3.9h-14V33.4z
		 M188.3,36.6c-1.5,0.8-3,1.3-4.7,1.7c-1.6,0.3-3.3,0.5-5,0.5c-1.8,0-3.4-0.3-5-0.8c-1.5-0.6-2.8-1.4-3.9-2.4c-1.1-1-2-2.3-2.6-3.8
		c-0.6-1.5-0.9-3.2-0.9-5s0.3-3.5,0.9-5c0.6-1.5,1.5-2.8,2.6-3.8s2.4-1.9,3.9-2.4c1.5-0.6,3.2-0.8,5-0.8c1.8,0,3.5,0.2,5.1,0.7
		c1.5,0.4,2.9,1.2,4.1,2.3l-3.6,3.9c-0.7-0.7-1.5-1.3-2.3-1.6c-0.9-0.4-1.9-0.6-3.2-0.6c-1.1,0-2.1,0.2-2.9,0.6s-1.6,0.9-2.2,1.5
		c-0.6,0.7-1.1,1.4-1.4,2.3c-0.3,0.9-0.5,1.9-0.5,2.9c0,1.1,0.2,2.1,0.5,3c0.3,0.9,0.8,1.7,1.4,2.3c0.6,0.7,1.4,1.2,2.2,1.5
		c0.9,0.4,1.9,0.6,2.9,0.6c1.1,0,2-0.1,2.8-0.4c0.8-0.3,1.4-0.5,1.9-0.8v-3.7h-4.1v-4.7h9L188.3,36.6L188.3,36.6z M192.2,13.7h4.9
		v24.5h-4.9V13.7z M200,30.3c0-1.3,0.2-2.4,0.7-3.4c0.4-1,1.1-1.9,1.9-2.6c0.8-0.7,1.7-1.3,2.8-1.7c1.1-0.4,2.2-0.6,3.4-0.6
		c1.2,0,2.3,0.2,3.4,0.6c1.1,0.4,2,1,2.8,1.7c0.8,0.7,1.4,1.6,1.9,2.6c0.4,1,0.7,2.1,0.7,3.4c0,1.3-0.2,2.4-0.7,3.4
		c-0.4,1-1.1,1.9-1.9,2.6c-0.8,0.7-1.7,1.3-2.8,1.7c-1.1,0.4-2.2,0.6-3.4,0.6c-1.2,0-2.3-0.2-3.4-0.6c-1.1-0.4-2-0.9-2.8-1.7
		c-0.8-0.7-1.4-1.6-1.9-2.6C200.2,32.7,200,31.6,200,30.3z M204.8,30.3c0,1.2,0.3,2.1,1,2.9c0.7,0.7,1.6,1.1,2.9,1.1
		c1.2,0,2.2-0.4,2.9-1.1c0.7-0.7,1-1.7,1-2.9c0-1.2-0.3-2.2-1-2.9c-0.7-0.7-1.6-1.1-2.9-1.1c-1.2,0-2.2,0.4-2.9,1.1
		C205.2,28.2,204.8,29.2,204.8,30.3z M220.8,13.7h4.9v10.4h0.1c0.6-0.8,1.3-1.3,2.2-1.6c0.9-0.3,1.8-0.5,2.8-0.5
		c1.1,0,2.1,0.2,3,0.7c0.9,0.5,1.6,1.1,2.3,1.9c0.6,0.8,1.1,1.7,1.4,2.7c0.3,1,0.5,2.1,0.5,3.2c0,1.2-0.2,2.3-0.6,3.3
		c-0.4,1-0.9,1.8-1.6,2.6s-1.5,1.3-2.4,1.7c-1,0.4-2,0.6-3.2,0.6c-0.6,0-1.1-0.1-1.6-0.2c-0.5-0.2-1-0.3-1.4-0.6
		c-0.4-0.2-0.8-0.5-1.1-0.8c-0.3-0.3-0.6-0.6-0.8-0.9h-0.1v2.1h-4.5L220.8,13.7L220.8,13.7z M225.2,30.3c0,1.2,0.3,2.1,1,2.9
		c0.7,0.7,1.6,1.1,2.9,1.1c1.2,0,2.2-0.4,2.9-1.1c0.7-0.7,1-1.7,1-2.9c0-1.2-0.3-2.2-1-2.9c-0.7-0.7-1.6-1.1-2.9-1.1
		c-1.2,0-2.2,0.4-2.9,1.1C225.6,28.2,225.2,29.2,225.2,30.3z M250.6,36.2L250.6,36.2c-0.6,0.8-1.3,1.4-2.2,1.8
		c-0.9,0.4-1.8,0.6-2.8,0.6c-0.7,0-1.4-0.1-2.1-0.3c-0.7-0.2-1.3-0.5-1.8-0.9c-0.5-0.4-0.9-0.9-1.2-1.5c-0.3-0.6-0.5-1.3-0.5-2.1
		c0-0.9,0.2-1.7,0.5-2.3c0.3-0.6,0.8-1.1,1.4-1.6c0.6-0.4,1.2-0.7,2-1c0.7-0.2,1.5-0.4,2.3-0.5c0.8-0.1,1.6-0.2,2.4-0.2
		c0.8,0,1.5,0,2.2,0c0-0.9-0.3-1.6-0.9-2.1c-0.6-0.5-1.3-0.8-2.2-0.8c-0.8,0-1.5,0.2-2.2,0.5c-0.7,0.3-1.3,0.8-1.8,1.4l-2.6-2.7
		c0.9-0.8,2-1.5,3.2-1.9c1.2-0.4,2.5-0.6,3.8-0.6c1.4,0,2.6,0.2,3.5,0.5c0.9,0.4,1.6,0.9,2.2,1.6c0.6,0.7,0.9,1.5,1.2,2.5
		c0.2,1,0.3,2.2,0.3,3.5v8h-4.5V36.2L250.6,36.2z M249.4,31.3c-0.4,0-0.8,0-1.4,0c-0.6,0-1.1,0.1-1.6,0.3s-0.9,0.4-1.3,0.7
		c-0.4,0.3-0.5,0.7-0.5,1.3c0,0.6,0.3,1,0.8,1.3c0.5,0.3,1,0.4,1.6,0.4c0.5,0,0.9-0.1,1.4-0.2c0.4-0.1,0.8-0.3,1.2-0.6
		c0.3-0.2,0.6-0.5,0.8-0.9c0.2-0.4,0.3-0.8,0.3-1.3v-1L249.4,31.3L249.4,31.3z M258.2,13.7h4.9v24.5h-4.9V13.7z"></path>
	<g id="_1576861847760">
		<polygon class="st0" points="19.5,45.6 19.6,45.5 39.1,26.1 34.1,21.1 19.5,35.6 10.3,26.4 24.8,11.9 19.8,6.9 5.3,21.4 5.3,21.4 
			0.3,26.4 0.3,26.4 0.3,26.4 14.5,40.6 		"></polygon>
		<polygon class="st0" points="46.8,21.1 26.2,0.5 21.2,5.5 41.9,26.1 20.9,47 25.9,52 46.8,31.1 51.8,26.1 		"></polygon>
	</g>
</g>
</svg>